<?xml version="1.0" encoding="utf-8"?>
<svg height="511pt" viewBox="0 -10 511.98685 511" width="511pt" xmlns="http://www.w3.org/2000/svg" fill="white">
  <path d="M 114.594 491.141 C 108.984 491.141 103.414 489.391 98.66 485.953 C 89.805 479.535 85.668 468.504 88.078 457.859 L 121.016 312.77 L 9.313 214.809 C 1.102 207.641 -2.035 196.289 1.336 185.902 C 4.707 175.535 13.879 168.195 24.738 167.191 L 172.535 153.773 L 230.969 17.027 C 235.277 6.98 245.09 0.492 255.992 0.492 C 266.895 0.492 276.707 6.98 281.016 17.004 L 339.449 153.773 L 487.223 167.191 C 498.105 168.172 507.277 175.535 510.648 185.902 C 514.02 196.27 510.902 207.641 502.691 214.809 L 390.988 312.75 L 423.926 457.836 C 426.34 468.504 422.199 479.535 413.348 485.934 C 404.516 492.332 392.738 492.824 383.438 487.234 L 255.992 411.074 L 128.547 487.277 C 124.238 489.836 119.438 491.141 114.594 491.141 Z M 171.406 156.418 C 171.406 156.418 171.406 156.441 171.383 156.461 L 171.406 156.418 Z M 340.535 156.355 L 340.559 156.398 C 340.559 156.375 340.559 156.375 340.535 156.355 Z"/>
</svg>