<?xml version="1.0" encoding="utf-8"?>
<svg version="1.1" id="Capa_1" x="0px" y="0px" viewBox="0 0 302.4 302.4" style="enable-background:new 0 0 302.4 302.4;" xmlns="http://www.w3.org/2000/svg">
  <g>
    <g>
      <path d="M 204.8 97.6 C 191.2 84 172 75.2 151.2 75.2 C 130.4 75.2 111.2 83.6 97.6 97.6 C 84 111.2 75.2 130.4 75.2 151.2 C 75.2 172 84 191.2 97.6 204.8 C 111.2 218.4 130.4 227.2 151.2 227.2 C 172 227.2 191.2 218.8 204.8 204.8 C 218.4 191.2 227.2 172 227.2 151.2 C 227.2 130.4 218.8 111.2 204.8 97.6 Z"/>
    </g>
  </g>
  <g>
    <g>
      <path d="M292,140.8h-30.8c-5.6,0-10.4,4.8-10.4,10.4c0,5.6,4.8,10.4,10.4,10.4H292c5.6,0,10.4-4.8,10.4-10.4 C302.4,145.6,297.6,140.8,292,140.8z"/>
    </g>
  </g>
  <g>
    <g>
      <path d="M151.2,250.8c-5.6,0-10.4,4.8-10.4,10.4V292c0,5.6,4.8,10.4,10.4,10.4c5.6,0,10.4-4.8,10.4-10.4v-30.8 C161.6,255.6,156.8,250.8,151.2,250.8z"/>
    </g>
  </g>
  <g>
    <g>
      <path d="M258,243.6l-22-22c-3.6-4-10.4-4-14.4,0s-4,10.4,0,14.4l22,22c4,4,10.4,4,14.4,0S262,247.6,258,243.6z"/>
    </g>
  </g>
  <g>
    <g>
      <path d="M151.2,0c-5.6,0-10.4,4.8-10.4,10.4v30.8c0,5.6,4.8,10.4,10.4,10.4c5.6,0,10.4-4.8,10.4-10.4V10.4 C161.6,4.8,156.8,0,151.2,0z"/>
    </g>
  </g>
  <g>
    <g>
      <path d="M258.4,44.4c-4-4-10.4-4-14.4,0l-22,22c-4,4-4,10.4,0,14.4c3.6,4,10.4,4,14.4,0l22-22C262.4,54.8,262.4,48.4,258.4,44.4z"/>
    </g>
  </g>
  <g>
    <g>
      <path d="M41.2,140.8H10.4c-5.6,0-10.4,4.8-10.4,10.4s4.4,10.4,10.4,10.4h30.8c5.6,0,10.4-4.8,10.4-10.4 C51.6,145.6,46.8,140.8,41.2,140.8z"/>
    </g>
  </g>
  <g>
    <g>
      <path d="M80.4,221.6c-3.6-4-10.4-4-14.4,0l-22,22c-4,4-4,10.4,0,14.4s10.4,4,14.4,0l22-22C84.4,232,84.4,225.6,80.4,221.6z"/>
    </g>
  </g>
  <g>
    <g>
      <path d="M80.4,66.4l-22-22c-4-4-10.4-4-14.4,0s-4,10.4,0,14.4l22,22c4,4,10.4,4,14.4,0S84.4,70.4,80.4,66.4z"/>
    </g>
  </g>
  <g/>
  <g/>
  <g/>
  <g/>
  <g/>
  <g/>
  <g/>
  <g/>
  <g/>
  <g/>
  <g/>
  <g/>
  <g/>
  <g/>
  <g/>
</svg>