<svg id="Capa_1" enable-background="new 0 0 512 512" height="512" viewBox="0 0 512 512" width="512" xmlns="http://www.w3.org/2000/svg"><g><path fill="white" d="m210.594 402.042-47.51-33.599.743-58.185c.073-5.709-3.102-10.965-8.188-13.557-5.088-2.594-11.205-2.071-15.781 1.344l-46.635 34.801-55.107-18.686c-5.409-1.834-11.386-.438-15.424 3.599s-5.433 10.017-3.599 15.424l18.688 55.106-34.802 46.637c-3.415 4.575-3.936 10.693-1.344 15.78 2.592 5.088 7.821 8.242 13.557 8.189l58.185-.744 33.598 47.51c2.838 4.013 7.425 6.34 12.245 6.339.779 0 1.564-.061 2.349-.185 5.639-.894 10.283-4.91 11.977-10.363l17.272-55.566 55.567-17.272c5.452-1.695 9.469-6.338 10.363-11.978s-1.492-11.297-6.154-14.594z"/><path d="m191.939 250.208c3.839 0 7.678-1.465 10.606-4.394l90-90c5.858-5.857 5.858-15.355 0-21.213-5.857-5.857-15.355-5.857-21.213 0l-90 90c-5.858 5.857-5.858 15.355 0 21.213 2.929 2.929 6.768 4.394 10.607 4.394z"/><path d="m322.147 120c3.839 0 7.678-1.465 10.606-4.394l90-90c5.858-5.857 5.858-15.355 0-21.213-5.857-5.857-15.355-5.857-21.213 0l-90 90c-5.858 5.857-5.858 15.355 0 21.213 2.929 2.929 6.768 4.394 10.607 4.394z"/><path d="m403.967 86.82-120 120c-5.858 5.857-5.858 15.355 0 21.213 2.929 2.929 6.768 4.394 10.606 4.394s7.678-1.465 10.606-4.394l120-120c5.858-5.857 5.858-15.355 0-21.213-5.856-5.857-15.354-5.857-21.212 0z"/><path d="m243.759 247.028-40 40c-5.858 5.857-5.858 15.355 0 21.213 2.929 2.929 6.768 4.394 10.606 4.394s7.678-1.465 10.606-4.394l40-40c5.858-5.857 5.858-15.355 0-21.213-5.857-5.857-15.355-5.857-21.212 0z"/><path d="m306.186 269.454-80 80c-5.858 5.857-5.858 15.355 0 21.213 2.929 2.929 6.768 4.394 10.606 4.394s7.678-1.465 10.606-4.394l80-80c5.858-5.857 5.858-15.355 0-21.213-5.857-5.858-15.355-5.858-21.212 0z"/><path d="m507.607 89.246c-5.857-5.857-15.355-5.857-21.213 0l-130 130c-5.858 5.857-5.858 15.355 0 21.213 2.929 2.929 6.768 4.394 10.606 4.394s7.678-1.465 10.606-4.394l130-130c5.858-5.858 5.858-15.356.001-21.213z"/><path d="m206 61h15v15c0 8.284 6.716 15 15 15s15-6.716 15-15v-15h15c8.284 0 15-6.716 15-15s-6.716-15-15-15h-15v-15c0-8.284-6.716-15-15-15s-15 6.716-15 15v15h-15c-8.284 0-15 6.716-15 15s6.716 15 15 15z"/><path d="m316 451h-15v-15c0-8.284-6.716-15-15-15s-15 6.716-15 15v15h-15c-8.284 0-15 6.716-15 15s6.716 15 15 15h15v15c0 8.284 6.716 15 15 15s15-6.716 15-15v-15h15c8.284 0 15-6.716 15-15s-6.716-15-15-15z"/><path d="m482 331h-15v-15c0-8.284-6.716-15-15-15s-15 6.716-15 15v15h-15c-8.284 0-15 6.716-15 15s6.716 15 15 15h15v15c0 8.284 6.716 15 15 15s15-6.716 15-15v-15h15c8.284 0 15-6.716 15-15s-6.716-15-15-15z"/><circle cx="81" cy="161" r="15"/></g></svg>