<?xml version="1.0" encoding="utf-8"?>
<svg version="1.1" fill-rule="nonzero" id="Capa_1" x="0px" y="0px" viewBox="0 0 312.999 312.999" xmlns="http://www.w3.org/2000/svg">
  <g transform="matrix(1, 0, 0, 1, 9.594401, 6.181702)">
    <g color="white">
      <path stroke="white" fill="white" d="M 305.6 178.053 C 302.4 177.253 299.2 178.053 296.4 180.053 C 286 188.853 234.8 208.053 220.4 208.053 C 188 208.053 158.4 194.853 137.2 173.653 C 116 152.453 102.8 122.853 102.8 90.453 C 102.8 76.853 105.2 63.653 109.2 51.653 C 113.6 38.853 120 27.253 128.4 17.253 C 132 12.853 131.2 6.453 126.8 2.853 C 124 0.853 120.8 0.053 117.6 0.853 C 83.6 10.053 54 30.453 32.8 57.653 C 12.4 84.453 0 117.653 0 154.053 C 0 197.653 17.6 237.253 46.4 266.053 C 75.2 294.853 114.8 312.453 158.4 312.453 C 195.2 312.453 229.2 299.653 256.4 278.453 C 284 256.853 304 226.053 312.4 190.853 C 314.4 184.853 311.2 179.253 305.6 178.053 Z" style="paint-order: fill;"/>
    </g>
  </g>
</svg>